<mxfile host="app.diagrams.net" modified="2022-07-27T05:59:32.189Z" agent="5.0 (Macintosh; Intel Mac OS X 10_15_7) AppleWebKit/537.36 (KHTML, like Gecko) Chrome/103.0.0.0 Safari/537.36" etag="9P4T0B34v8LugVOKMpdQ" version="20.1.1" type="github">
  <diagram id="gQir4tKXLFM2m6vFJGEi" name="Page-1">
    <mxGraphModel dx="1018" dy="659" grid="1" gridSize="10" guides="1" tooltips="1" connect="1" arrows="1" fold="1" page="1" pageScale="1" pageWidth="850" pageHeight="1100" math="0" shadow="0">
      <root>
        <mxCell id="0" />
        <mxCell id="1" parent="0" />
        <mxCell id="S_cY4TQ_jlMU2eALo9Zc-6" value="" style="edgeStyle=orthogonalEdgeStyle;rounded=0;orthogonalLoop=1;jettySize=auto;html=1;fontSize=16;strokeWidth=1.5;" edge="1" parent="1" source="S_cY4TQ_jlMU2eALo9Zc-1" target="S_cY4TQ_jlMU2eALo9Zc-4">
          <mxGeometry relative="1" as="geometry" />
        </mxCell>
        <mxCell id="S_cY4TQ_jlMU2eALo9Zc-1" value="&lt;font style=&quot;font-size: 18px;&quot;&gt;Struct&lt;/font&gt;" style="rounded=1;whiteSpace=wrap;html=1;fillColor=#f5f5f5;fontColor=#333333;strokeColor=#666666;" vertex="1" parent="1">
          <mxGeometry x="320" y="70" width="120" height="60" as="geometry" />
        </mxCell>
        <mxCell id="S_cY4TQ_jlMU2eALo9Zc-3" value="&lt;font style=&quot;font-size: 16px;&quot;&gt;BlockContext&lt;/font&gt;" style="rounded=0;whiteSpace=wrap;html=1;fontSize=18;fillColor=#dae8fc;strokeColor=#6c8ebf;" vertex="1" parent="1">
          <mxGeometry x="120" y="200" width="120" height="60" as="geometry" />
        </mxCell>
        <mxCell id="S_cY4TQ_jlMU2eALo9Zc-4" value="&lt;font style=&quot;font-size: 16px;&quot;&gt;TxContext&lt;/font&gt;" style="rounded=0;whiteSpace=wrap;html=1;fontSize=18;fillColor=#dae8fc;strokeColor=#6c8ebf;" vertex="1" parent="1">
          <mxGeometry x="320" y="200" width="120" height="60" as="geometry" />
        </mxCell>
        <mxCell id="S_cY4TQ_jlMU2eALo9Zc-5" value="&lt;font style=&quot;font-size: 16px;&quot;&gt;EVM&lt;/font&gt;" style="rounded=0;whiteSpace=wrap;html=1;fontSize=18;fillColor=#dae8fc;strokeColor=#6c8ebf;" vertex="1" parent="1">
          <mxGeometry x="520" y="200" width="120" height="60" as="geometry" />
        </mxCell>
        <mxCell id="S_cY4TQ_jlMU2eALo9Zc-8" value="" style="endArrow=classic;html=1;rounded=0;fontSize=16;strokeWidth=1.5;exitX=0.5;exitY=1;exitDx=0;exitDy=0;entryX=0.5;entryY=0;entryDx=0;entryDy=0;" edge="1" parent="1" source="S_cY4TQ_jlMU2eALo9Zc-1" target="S_cY4TQ_jlMU2eALo9Zc-3">
          <mxGeometry width="50" height="50" relative="1" as="geometry">
            <mxPoint x="400" y="360" as="sourcePoint" />
            <mxPoint x="450" y="310" as="targetPoint" />
          </mxGeometry>
        </mxCell>
        <mxCell id="S_cY4TQ_jlMU2eALo9Zc-9" value="" style="endArrow=classic;html=1;rounded=0;fontSize=16;strokeWidth=1.5;entryX=0.5;entryY=0;entryDx=0;entryDy=0;" edge="1" parent="1" target="S_cY4TQ_jlMU2eALo9Zc-5">
          <mxGeometry width="50" height="50" relative="1" as="geometry">
            <mxPoint x="380" y="130" as="sourcePoint" />
            <mxPoint x="190" y="210" as="targetPoint" />
          </mxGeometry>
        </mxCell>
        <mxCell id="S_cY4TQ_jlMU2eALo9Zc-11" value="&lt;font style=&quot;font-size: 18px;&quot;&gt;Function&lt;/font&gt;" style="rounded=1;whiteSpace=wrap;html=1;fillColor=#f5f5f5;fontColor=#333333;strokeColor=#666666;" vertex="1" parent="1">
          <mxGeometry x="320" y="330" width="120" height="60" as="geometry" />
        </mxCell>
        <mxCell id="S_cY4TQ_jlMU2eALo9Zc-12" value="&lt;font style=&quot;font-size: 16px;&quot;&gt;NewEVM&lt;/font&gt;" style="rounded=0;whiteSpace=wrap;html=1;fontSize=18;fillColor=#dae8fc;strokeColor=#6c8ebf;" vertex="1" parent="1">
          <mxGeometry x="40" y="440" width="120" height="60" as="geometry" />
        </mxCell>
        <mxCell id="S_cY4TQ_jlMU2eALo9Zc-13" value="&lt;span style=&quot;font-size: 16px;&quot;&gt;Reset&lt;/span&gt;" style="rounded=0;whiteSpace=wrap;html=1;fontSize=18;fillColor=#dae8fc;strokeColor=#6c8ebf;" vertex="1" parent="1">
          <mxGeometry x="200" y="440" width="120" height="60" as="geometry" />
        </mxCell>
        <mxCell id="S_cY4TQ_jlMU2eALo9Zc-14" value="&lt;span style=&quot;font-size: 16px;&quot;&gt;Cancel&lt;/span&gt;" style="rounded=0;whiteSpace=wrap;html=1;fontSize=18;fillColor=#dae8fc;strokeColor=#6c8ebf;" vertex="1" parent="1">
          <mxGeometry x="360" y="440" width="120" height="60" as="geometry" />
        </mxCell>
        <mxCell id="S_cY4TQ_jlMU2eALo9Zc-15" value="&lt;span style=&quot;font-size: 16px;&quot;&gt;Cancelled&lt;/span&gt;" style="rounded=0;whiteSpace=wrap;html=1;fontSize=18;fillColor=#dae8fc;strokeColor=#6c8ebf;" vertex="1" parent="1">
          <mxGeometry x="520" y="440" width="120" height="60" as="geometry" />
        </mxCell>
        <mxCell id="S_cY4TQ_jlMU2eALo9Zc-16" value="&lt;span style=&quot;font-size: 16px;&quot;&gt;Interpreter&lt;/span&gt;" style="rounded=0;whiteSpace=wrap;html=1;fontSize=18;fillColor=#dae8fc;strokeColor=#6c8ebf;" vertex="1" parent="1">
          <mxGeometry x="680" y="440" width="120" height="60" as="geometry" />
        </mxCell>
        <mxCell id="S_cY4TQ_jlMU2eALo9Zc-17" value="&lt;span style=&quot;font-size: 16px;&quot;&gt;Call&lt;/span&gt;" style="rounded=0;whiteSpace=wrap;html=1;fontSize=18;fillColor=#f8cecc;strokeColor=#b85450;" vertex="1" parent="1">
          <mxGeometry x="840" y="440" width="120" height="60" as="geometry" />
        </mxCell>
        <mxCell id="S_cY4TQ_jlMU2eALo9Zc-18" value="&lt;span style=&quot;font-size: 16px;&quot;&gt;CallCode&lt;/span&gt;" style="rounded=0;whiteSpace=wrap;html=1;fontSize=18;fillColor=#f8cecc;strokeColor=#b85450;" vertex="1" parent="1">
          <mxGeometry x="1000" y="440" width="120" height="60" as="geometry" />
        </mxCell>
        <mxCell id="S_cY4TQ_jlMU2eALo9Zc-19" value="&lt;span style=&quot;font-size: 16px;&quot;&gt;DelegateCall&lt;/span&gt;" style="rounded=0;whiteSpace=wrap;html=1;fontSize=18;fillColor=#dae8fc;strokeColor=#6c8ebf;" vertex="1" parent="1">
          <mxGeometry x="1160" y="440" width="120" height="60" as="geometry" />
        </mxCell>
      </root>
    </mxGraphModel>
  </diagram>
</mxfile>
